<?xml version="1.0" standalone="no"?>
<!DOCTYPE svg PUBLIC "-//W3C//DTD SVG 20010904//EN"
 "http://www.w3.org/TR/2001/REC-SVG-20010904/DTD/svg10.dtd">
<svg version="1.0" xmlns="http://www.w3.org/2000/svg"
 width="1920.000000pt" height="1619.000000pt" viewBox="0 0 1920.000000 1619.000000"
 preserveAspectRatio="xMidYMid meet">

<g transform="translate(0.000000,1619.000000) scale(0.100000,-0.100000)"
fill="#000000" stroke="none">
<path d="M5352 11243 c-42 -20 -57 -52 -120 -243 -28 -85 -252 -767 -498
-1515 -427 -1299 -446 -1362 -446 -1431 4 -309 160 -634 404 -843 124 -105
245 -173 421 -234 16 -6 17 -127 15 -2399 l-3 -2393 -380 -5 c-305 -4 -384 -8
-401 -19 -80 -53 -68 -196 19 -232 27 -12 857 -14 5242 -14 5006 0 5212 1
5238 18 64 41 84 123 47 184 -38 63 -40 63 -450 63 l-370 0 2 2397 3 2396 55
19 c30 10 91 37 135 59 366 187 615 559 641 959 8 112 23 57 -171 620 -80 234
-186 542 -235 685 -49 143 -159 465 -245 715 -86 250 -206 601 -266 779 -135
395 -140 406 -181 431 -33 20 -47 20 -4228 20 -3857 0 -4198 -2 -4228 -17z
m3244 -360 c-7 -127 -42 -717 -51 -848 -8 -133 -14 -244 -35 -620 -27 -475
-78 -1322 -86 -1409 -3 -38 -16 -107 -30 -153 -75 -258 -243 -457 -485 -573
-428 -204 -938 -37 -1174 385 -49 87 -82 188 -101 303 l-15 98 95 479 c52 264
102 521 111 570 9 50 65 340 125 645 60 305 123 629 139 720 17 91 46 243 66
339 19 96 35 176 35 178 0 2 318 3 706 3 l707 0 -7 -117z m3416 -113 c26 -124
68 -326 94 -450 63 -311 123 -596 193 -925 32 -154 71 -341 86 -415 15 -74 63
-304 107 -510 73 -344 79 -382 74 -455 -27 -397 -345 -739 -753 -810 -108 -19
-178 -19 -287 0 -176 31 -316 97 -450 213 -91 80 -149 153 -203 259 -77 149
-97 231 -113 473 -6 85 -15 209 -20 275 -5 66 -21 278 -35 470 -13 193 -27
379 -30 415 -2 36 -7 103 -10 150 -3 47 -16 234 -30 415 -13 182 -36 483 -49
670 -14 187 -28 366 -31 398 l-6 57 707 -2 708 -3 48 -225z m-5103 193 c0 -27
-1 -27 -9 -6 l-9 23 -683 -3 -682 -2 -7 -25 c-4 -14 -7 -18 -8 -8 -3 51 -43
48 705 48 l694 0 -1 -27z m3371 11 c0 -13 -3 -14 -14 -5 -10 8 -198 11 -701
11 -378 -1 -690 1 -693 5 -3 3 313 5 701 5 646 0 707 -1 707 -16z m3358 10
c-3 -3 -314 -5 -692 -4 -651 0 -686 0 -686 -17 0 -15 -2 -16 -10 -3 -5 8 -10
18 -10 23 0 4 316 7 702 7 386 0 699 -2 696 -6z m15 -34 c3 -11 1 -18 -4 -14
-5 3 -9 0 -9 -7 0 -7 -2 -10 -5 -8 -4 5 5 49 10 49 1 0 5 -9 8 -20z m-3363
-54 c0 -25 -4 -47 -9 -50 -5 -3 -8 9 -6 27 2 19 -1 40 -6 48 -7 12 -9 12 -9 0
0 -8 -3 -12 -6 -8 -9 9 5 27 22 27 10 0 14 -12 14 -44z m-3390 14 c0 -11 -4
-20 -9 -20 -5 0 -7 9 -4 20 3 11 7 20 9 20 2 0 4 -9 4 -20z m-1383 -20 c0 -16
-1 -29 -2 -27 -13 15 -25 48 -16 43 6 -4 11 -2 11 3 0 6 2 11 3 11 2 0 4 -13
4 -30z m3360 -17 c-3 -10 -5 -2 -5 17 0 19 2 27 5 18 2 -10 2 -26 0 -35z
m3423 22 c0 -8 -4 -15 -10 -15 -5 0 -7 7 -4 15 4 8 8 15 10 15 2 0 4 -7 4 -15z
m1370 8 c0 -5 4 -25 9 -45 5 -22 5 -36 0 -32 -5 3 -9 16 -9 29 0 13 -4 27 -10
30 -5 3 -10 10 -10 16 0 11 20 13 20 2z m-6808 -175 c-27 -133 -46 -195 -32
-103 4 25 5 45 2 45 -2 0 1 7 8 15 8 10 11 32 7 68 -4 34 -3 45 3 32 8 -20 9
-20 9 1 1 23 21 87 27 82 1 -2 -9 -65 -24 -140z m6755 110 c-3 -8 -6 -5 -6 6
-1 11 2 17 5 13 3 -3 4 -12 1 -19z m-1330 -3 c0 -8 -4 -12 -9 -9 -4 3 -8 9 -8
15 0 5 4 9 8 9 5 0 9 -7 9 -15z m-6811 -21 c-4 -9 -9 -15 -11 -12 -3 3 -3 13
1 22 4 9 9 15 11 12 3 -3 3 -13 -1 -22z m37 1 c-3 -9 -8 -14 -10 -11 -3 3 -2
9 2 15 9 16 15 13 8 -4z m1304 -17 c-3 -7 -5 -2 -5 12 0 14 2 19 5 13 2 -7 2
-19 0 -25z m5488 -7 c-3 -16 -2 -32 3 -34 9 -6 8 -65 -2 -74 -3 -4 -7 5 -7 18
-2 40 -6 63 -15 83 -5 14 -4 17 4 12 7 -4 12 -1 12 8 0 9 3 16 6 16 3 0 3 -13
-1 -29z m-2007 -33 c0 -24 -3 -36 -6 -28 -3 8 -10 18 -16 22 -8 5 -7 8 2 8 6
0 12 9 12 20 0 11 2 20 4 20 3 0 4 -19 4 -42z m3399 -10 c-3 -8 -6 -5 -6 6 -1
11 2 17 5 13 3 -3 4 -12 1 -19z m-8255 -20 c-8 -8 -9 -4 -5 13 4 13 8 18 11
10 2 -7 -1 -18 -6 -23z m3430 -53 c2 -57 0 -79 -10 -81 -7 -1 -9 0 -4 2 5 3 7
42 5 87 -3 45 -2 79 1 76 3 -3 7 -40 8 -84z m4812 49 c5 -14 4 -15 -9 -4 -17
14 -19 20 -6 20 5 0 12 -7 15 -16z m66 -78 c-1 -6 -7 4 -15 23 -8 18 -15 38
-15 45 1 6 7 -4 15 -23 8 -18 15 -38 15 -45z m-3457 44 c-3 -11 -7 -20 -9 -20
-2 0 -4 9 -4 20 0 11 4 20 9 20 5 0 7 -9 4 -20z m-4863 -10 c-6 -11 -12 -20
-14 -20 -2 0 -2 9 1 20 3 11 9 20 15 20 5 0 4 -9 -2 -20z m4822 -12 c-8 -8 -9
-4 -5 13 4 13 8 18 11 10 2 -7 -1 -18 -6 -23z m49 -31 c-13 -13 -15 1 -4 30 7
17 8 17 11 -1 2 -10 -1 -23 -7 -29z m3419 28 c0 -8 -2 -15 -4 -15 -2 0 -6 7
-10 15 -3 8 -1 15 4 15 6 0 10 -7 10 -15z m-6903 -17 c-3 -8 -6 -5 -6 6 -1 11
2 17 5 13 3 -3 4 -12 1 -19z m5519 -44 c6 -30 7 -57 4 -59 -4 -3 -11 14 -14
38 -4 23 -10 53 -13 67 -3 14 -2 21 3 17 5 -5 14 -33 20 -63z m-6904 -8 c7 4
8 2 4 -5 -6 -8 -12 -9 -20 -2 -7 6 -17 7 -21 3 -5 -4 -5 1 -2 11 4 10 7 24 8
30 0 7 5 0 11 -16 5 -15 14 -24 20 -21z m3 34 c3 -5 1 -10 -4 -10 -6 0 -11 5
-11 10 0 6 2 10 4 10 3 0 8 -4 11 -10z m1377 -32 c-8 -8 -9 -4 -5 13 4 13 8
18 11 10 2 -7 -1 -18 -6 -23z m3470 -10 c-8 -8 -9 -4 -5 13 4 13 8 18 11 10 2
-7 -1 -18 -6 -23z m2085 -45 c-3 -10 -5 -2 -5 17 0 19 2 27 5 18 2 -10 2 -26
0 -35z m-6960 31 c-3 -3 -12 -4 -19 -1 -8 3 -5 6 6 6 11 1 17 -2 13 -5z m3462
-6 c-1 -7 -5 -24 -9 -38 -7 -22 -8 -21 -9 13 -1 20 4 37 9 37 6 0 10 -6 9 -12z
m1443 -13 c3 -14 2 -25 -2 -25 -4 0 -10 11 -12 25 -3 14 -2 25 2 25 4 0 10
-11 12 -25z m-3482 -1 c0 -8 -4 -13 -9 -10 -5 4 -12 0 -14 -6 -4 -8 -6 -7 -6
4 -1 14 6 21 27 27 1 1 2 -6 2 -15z m-1437 -11 c-7 -2 -13 -9 -13 -15 0 -5 -6
-24 -14 -41 -22 -50 -24 -61 -13 -82 9 -18 9 -19 -6 -6 -21 17 -22 7 -1 -24 9
-13 14 -30 11 -37 -3 -8 -6 -6 -6 5 -1 10 -5 15 -11 12 -6 -4 -7 1 -3 12 6 16
5 16 -10 4 -15 -12 -16 -10 -3 30 32 106 51 149 66 148 10 0 11 -2 3 -6z
m6954 -35 c-3 -8 -6 -5 -6 6 -1 11 2 17 5 13 3 -3 4 -12 1 -19z m1430 0 c-3
-8 -6 -5 -6 6 -1 11 2 17 5 13 3 -3 4 -12 1 -19z m-6961 -14 c-4 -9 -9 -15
-11 -12 -3 3 -3 13 1 22 4 9 9 15 11 12 3 -3 3 -13 -1 -22z m6999 -42 c-2 -3
-7 3 -11 12 -3 9 -11 13 -17 9 -7 -4 -8 0 -4 11 4 10 7 23 7 29 1 7 7 -3 16
-22 8 -19 12 -36 9 -39z m-4938 36 c-3 -8 -6 -5 -6 6 -1 11 2 17 5 13 3 -3 4
-12 1 -19z m3489 7 c-7 -20 4 -76 14 -70 8 5 20 -19 19 -38 0 -7 -4 -3 -9 8
-8 19 -9 19 -9 -2 -1 -12 4 -25 9 -28 14 -8 13 -42 -1 -51 -9 -5 -10 1 -5 20
3 14 3 26 -2 26 -11 0 -33 116 -25 136 3 7 7 14 10 14 3 0 3 -7 -1 -15z
m-5563 -57 c-8 -43 -17 -52 -33 -33 -7 8 -10 19 -6 22 4 4 11 2 15 -6 6 -8 10
-3 14 18 4 17 9 31 12 31 2 0 2 -15 -2 -32z m2062 22 c3 -5 1 -10 -4 -10 -6 0
-11 5 -11 10 0 6 2 10 4 10 3 0 8 -4 11 -10z m1411 -27 c-10 -10 -19 5 -10 18
6 11 8 11 12 0 2 -7 1 -15 -2 -18z m3548 -4 c-2 -4 0 -10 6 -14 5 -3 10 -12
10 -18 0 -7 -9 -1 -19 12 -14 19 -20 21 -23 10 -3 -8 -4 -6 -3 4 2 9 -3 17
-11 17 -8 0 -14 4 -14 9 0 5 13 4 29 -2 17 -6 28 -14 25 -18z m-4969 -25 c0
-14 -3 -28 -7 -30 -4 -3 -8 12 -8 32 0 41 13 39 15 -2z m1470 -25 c0 -21 -3
-39 -7 -39 -5 0 -8 21 -8 47 0 25 3 43 7 39 4 -4 8 -25 8 -47z m3453 26 c-3
-3 -9 2 -12 12 -6 14 -5 15 5 6 7 -7 10 -15 7 -18z m13 -42 c13 -16 12 -17 -3
-4 -17 13 -22 21 -14 21 2 0 10 -8 17 -17z m59 7 c0 -5 -4 -10 -10 -10 -5 0
-10 5 -10 10 0 6 5 10 10 10 6 0 10 -4 10 -10z m-7110 -9 c0 -6 -4 -13 -10
-16 -5 -3 -10 1 -10 9 0 9 5 16 10 16 6 0 10 -4 10 -9z m28 -26 c-3 -3 -9 2
-12 12 -6 14 -5 15 5 6 7 -7 10 -15 7 -18z m2084 -2 c-3 -16 -7 -22 -10 -15
-4 13 4 42 11 42 2 0 2 -12 -1 -27z m-3508 -8 c3 -8 1 -15 -3 -15 -5 0 -11 7
-15 15 -3 8 -1 15 3 15 5 0 11 -7 15 -15z m-20 -20 c7 -18 -10 -20 -18 -2 -4
6 -4 2 -2 -10 3 -15 0 -20 -10 -16 -10 4 -11 10 -3 24 12 23 25 24 33 4z
m1453 -7 c-3 -8 -6 -5 -6 6 -1 11 2 17 5 13 3 -3 4 -12 1 -19z m7103 -13 c0
-5 -5 -3 -10 5 -5 8 -10 20 -10 25 0 6 5 3 10 -5 5 -8 10 -19 10 -25z m-1470
-6 c0 -5 -4 -9 -10 -9 -5 0 -10 7 -10 16 0 8 5 12 10 9 6 -3 10 -10 10 -16z
m1450 0 c0 -6 -4 -7 -10 -4 -5 3 -10 11 -10 16 0 6 5 7 10 4 6 -3 10 -11 10
-16z m-7099 -48 l-5 -26 -7 30 c-4 17 -7 22 -8 11 0 -11 -4 -17 -7 -13 -3 3
-3 15 1 26 9 30 33 5 26 -28z m2091 7 c3 -18 8 -42 12 -53 6 -15 4 -15 -6 3
-8 12 -17 19 -21 15 -4 -4 -6 11 -5 34 3 48 14 48 20 1z m21 27 c-3 -9 -8 -14
-10 -11 -3 3 -2 9 2 15 9 16 15 13 8 -4z m-3591 -17 c-7 -7 -12 -8 -12 -2 0
14 12 26 19 19 2 -3 -1 -11 -7 -17z m8605 15 c-4 -3 -3 -11 2 -17 9 -13 22
-46 17 -46 -2 0 -11 11 -20 25 -15 23 -14 45 1 45 4 0 3 -3 0 -7z m-1469 -68
c0 -16 -2 -15 -8 5 -4 14 -8 34 -8 45 0 16 2 15 8 -5 4 -14 8 -34 8 -45z m31
5 c0 -10 -3 -8 -9 5 -12 27 -12 43 0 25 5 -8 9 -22 9 -30z m-7175 -45 c-6 -15
-8 -15 -16 -2 -4 8 -5 23 -2 32 6 15 8 15 16 2 4 -8 5 -23 2 -32z m1474 20
c-3 -3 -9 2 -12 12 -6 14 -5 15 5 6 7 -7 10 -15 7 -18z m3591 -12 c-1 -37 -1
-37 -8 -8 -7 28 -5 45 5 45 2 0 3 -17 3 -37z m-1489 7 c0 -5 -5 -10 -11 -10
-5 0 -7 5 -4 10 3 6 8 10 11 10 2 0 4 -4 4 -10z m5017 -22 c-3 -8 -6 -5 -6 6
-1 11 2 17 5 13 3 -3 4 -12 1 -19z m53 2 c0 -5 -2 -10 -4 -10 -3 0 -8 5 -11
10 -3 6 -1 10 4 10 6 0 11 -4 11 -10z m-5084 -28 c-17 -16 -18 -16 -5 5 7 12
15 20 18 17 3 -2 -3 -12 -13 -22z m39 -1 c-3 -6 -11 -11 -16 -11 -5 0 -4 6 3
14 14 16 24 13 13 -3z m5020 -1 c3 -5 -1 -10 -10 -10 -9 0 -13 5 -10 10 3 6 8
10 10 10 2 0 7 -4 10 -10z m43 -15 c-3 -3 -9 2 -12 12 -6 14 -5 15 5 6 7 -7
10 -15 7 -18z m-8668 5 c0 -5 -2 -10 -4 -10 -3 0 -8 5 -11 10 -3 6 -1 10 4 10
6 0 11 -4 11 -10z m7167 -12 c-3 -8 -6 -5 -6 6 -1 11 2 17 5 13 3 -3 4 -12 1
-19z m-3610 -45 c-3 -10 -5 -4 -5 12 0 17 2 24 5 18 2 -7 2 -21 0 -30z m5120
15 c-3 -8 -6 -5 -6 6 -1 11 2 17 5 13 3 -3 4 -12 1 -19z m-3597 -43 c0 -19 -4
-37 -10 -40 -5 -3 -10 -13 -10 -21 0 -9 5 -12 12 -8 7 5 8 3 3 -5 -15 -25 -30
6 -17 34 14 31 15 48 3 41 -4 -3 -6 6 -3 19 6 35 22 21 22 -20z m-5140 -10
c-7 -20 -14 -35 -16 -33 -2 2 2 21 8 41 6 20 13 35 16 33 2 -3 -1 -21 -8 -41z
m3637 20 c-4 -8 -12 -15 -19 -14 -10 0 -10 2 0 6 6 2 12 12 12 21 0 8 3 13 6
9 4 -3 4 -13 1 -22z m3608 15 c3 -5 1 -10 -4 -10 -6 0 -11 5 -11 10 0 6 2 10
4 10 3 0 8 -4 11 -10z m-5733 -35 c-2 -14 -8 -25 -13 -25 -5 0 -9 -12 -9 -27
0 -19 -3 -24 -11 -16 -7 7 -4 22 11 52 25 48 29 50 22 16z m7230 -16 c-9 -11
-20 -19 -25 -19 -5 0 -1 7 7 16 9 8 16 23 16 32 0 14 2 14 9 3 6 -9 3 -20 -7
-32z m-5112 -15 c0 -8 -4 -12 -10 -9 -5 3 -10 10 -10 16 0 5 5 9 10 9 6 0 10
-7 10 -16z m3627 -26 c-3 -8 -6 -5 -6 6 -1 11 2 17 5 13 3 -3 4 -12 1 -19z
m1475 -13 c3 -13 1 -22 -3 -19 -9 5 -13 44 -5 44 2 0 6 -11 8 -25z m-5102 -1
c0 -2 -7 -4 -15 -4 -8 0 -15 4 -15 10 0 5 7 7 15 4 8 -4 15 -8 15 -10z m5170
-47 c0 -15 -34 24 -43 48 -6 14 -1 12 18 -9 14 -16 25 -34 25 -39z m-8820 38
c-7 -9 -15 -13 -19 -10 -3 3 1 10 9 15 21 14 24 12 10 -5z m1489 -30 l0 -20
-9 20 c-5 11 -9 27 -9 35 -1 13 0 13 9 0 5 -8 9 -24 9 -35z m2144 -31 c-4 -68
-13 -68 -13 0 0 31 4 55 8 52 4 -2 6 -26 5 -52z m-2163 18 c0 -15 -2 -15 -10
-2 -13 20 -13 33 0 25 6 -3 10 -14 10 -23z m3700 -23 c0 -39 -17 -29 -18 11 0
17 4 28 9 25 5 -4 9 -20 9 -36z m-5179 8 c-10 -9 -11 -8 -5 6 3 10 9 15 12 12
3 -3 0 -11 -7 -18z m7309 -8 c0 -11 -4 -18 -10 -14 -5 3 -7 12 -3 20 7 21 13
19 13 -6z m-7340 -26 c-11 -17 -11 -17 -6 0 3 10 6 24 7 30 0 9 2 9 5 0 3 -7
0 -20 -6 -30z m8870 27 c0 -5 -2 -10 -4 -10 -3 0 -8 5 -11 10 -3 6 -1 10 4 10
6 0 11 -4 11 -10z m-1491 -65 c0 -14 -4 -10 -14 14 -19 42 -19 50 0 25 8 -10
14 -28 14 -39z m-3659 4 c0 -41 -15 -36 -16 6 0 18 3 32 8 29 4 -3 8 -18 8
-35z m5160 30 c0 -15 -18 -19 -23 -6 -3 8 1 14 9 14 8 0 14 -4 14 -8z m-8869
-22 c-10 -9 -11 -8 -5 6 3 10 9 15 12 12 3 -3 0 -11 -7 -18z m5185 3 c8 0 14
-7 14 -17 0 -14 -2 -14 -20 2 -11 10 -20 23 -19 29 0 6 3 6 6 -1 2 -7 11 -13
19 -13z m-3676 -2 c0 -9 4 -8 10 2 7 11 8 5 4 -20 -9 -44 -14 -51 -14 -17 0
15 -4 27 -10 27 -5 0 -10 -5 -10 -12 0 -6 -2 -9 -5 -6 -8 7 5 38 16 38 5 0 9
-6 9 -12z m2166 -36 c-4 -3 -12 0 -19 8 -9 10 -9 11 1 6 8 -5 12 1 13 16 l2
23 4 -23 c3 -13 2 -26 -1 -30z m3666 -4 c-6 -6 -9 0 -9 18 0 23 1 24 9 10 7
-12 7 -21 0 -28z m1535 28 c-3 -8 -1 -17 6 -20 7 -2 4 -5 -5 -5 -10 -1 -18 1
-18 3 0 10 13 36 17 36 3 0 3 -6 0 -14z m-8911 -53 c-11 -11 -17 4 -9 23 7 18
8 18 11 1 2 -10 1 -21 -2 -24z m1534 12 c0 -8 -4 -15 -10 -15 -5 0 -7 7 -4 15
4 8 8 15 10 15 2 0 4 -7 4 -15z m2150 -65 c0 -38 -3 -70 -7 -70 -5 0 -7 31 -5
70 2 38 6 70 8 70 2 0 4 -31 4 -70z m1556 33 c-3 -21 -5 -51 -6 -68 0 -22 -3
-26 -9 -16 -13 21 -1 121 15 121 3 0 3 -17 0 -37z m2154 -38 c1 -26 3 -27 10
-10 8 18 9 18 9 2 1 -10 4 -16 9 -14 4 3 7 -6 7 -19 0 -30 -3 -30 -15 -1 -9
22 -9 22 -10 -3 l-2 -25 -7 25 c-12 41 -21 118 -11 95 5 -11 9 -33 10 -50z
m1506 31 c1 -7 -4 -13 -11 -13 -7 0 -10 8 -7 19 5 20 15 17 18 -6z m-7360 -13
c-10 -10 -19 5 -10 18 6 11 8 11 12 0 2 -7 1 -15 -2 -18z m7411 -8 c6 -19 7
-33 2 -29 -5 3 -9 11 -9 19 0 7 -7 21 -16 29 -12 13 -13 16 -1 16 7 0 18 -16
24 -35z m-8971 -16 c1 -25 -1 -28 -8 -15 -5 10 -7 24 -4 32 8 21 11 17 12 -17z
m1551 -21 c-3 -8 -6 -5 -6 6 -1 11 2 17 5 13 3 -3 4 -12 1 -19z m-1560 -40
c-3 -8 -6 -5 -6 6 -1 11 2 17 5 13 3 -3 4 -12 1 -19z m1553 0 c0 -12 -3 -18
-7 -14 -11 10 -12 36 -2 36 5 0 9 -10 9 -22z m3692 -48 c-5 -44 -19 -56 -16
-12 1 15 3 38 3 52 1 16 4 20 9 13 4 -7 6 -30 4 -53z m38 19 c0 -24 -4 -38
-10 -34 -14 8 -9 75 6 75 2 0 4 -18 4 -41z m-5300 17 c0 -3 -4 -8 -10 -11 -5
-3 -10 -1 -10 4 0 6 5 11 10 11 6 0 10 -2 10 -4z m31 -23 c-12 -20 -14 -14 -5
12 4 9 9 14 11 11 3 -2 0 -13 -6 -23z m3692 -5 c-8 -46 -13 -48 -13 -5 0 21 4
37 10 37 5 0 7 -14 3 -32z m3738 5 c-8 -15 -10 -15 -11 -2 0 17 10 32 18 25 2
-3 -1 -13 -7 -23z m1574 -12 c-3 -5 -1 -11 4 -13 4 -1 11 -14 15 -28 6 -25 6
-25 -5 -2 -7 12 -15 22 -19 22 -5 0 -11 7 -14 16 -4 9 -2 13 5 8 8 -4 9 1 5
17 -6 20 -5 21 4 6 6 -9 9 -21 5 -26z m-7478 -13 c-3 -7 -5 -2 -5 12 0 14 2
19 5 13 2 -7 2 -19 0 -25z m-1561 1 c0 -10 -4 -15 -8 -13 -5 3 -11 -3 -14 -13
-3 -10 -10 -27 -14 -38 l-9 -20 3 20 c9 54 19 82 30 82 6 0 12 -8 12 -18z
m1504 -29 c0 -5 -2 -10 -4 -10 -3 0 -8 5 -11 10 -3 6 -1 10 4 10 6 0 11 -4 11
-10z m30 -20 c5 0 11 6 13 13 3 7 6 5 6 -5 1 -10 -5 -18 -13 -18 -8 0 -16 -10
-19 -22 -2 -13 -4 -3 -4 22 1 25 2 37 5 28 2 -10 7 -18 12 -18z m3774 14 c3
-9 5 -37 5 -62 -1 -26 -4 -37 -6 -24 -8 39 -21 24 -17 -20 l3 -43 -9 40 c-6
31 -5 43 6 51 16 13 19 54 4 54 -5 0 -10 5 -10 10 0 16 17 12 24 -6z m-1587
-16 c-3 -8 -6 -5 -6 6 -1 11 2 17 5 13 3 -3 4 -12 1 -19z m3776 -40 c11 -78
16 -108 26 -143 5 -19 6 -35 2 -35 -4 0 -17 48 -29 108 -25 120 -25 125 -13
118 4 -3 11 -25 14 -48z m1551 36 c3 -8 11 -12 17 -9 6 4 9 1 8 -6 -2 -8 2
-25 9 -39 13 -24 12 -24 -3 -5 -9 11 -20 21 -25 21 -6 1 -15 2 -21 3 -8 1 -8
5 0 14 8 10 7 17 -1 25 -8 8 -9 12 -1 12 6 0 14 -7 17 -16z m-7507 -46 c-3 -8
-6 -5 -6 6 -1 11 2 17 5 13 3 -3 4 -12 1 -19z m-1581 -22 c0 -19 -5 -34 -11
-33 -5 1 -9 -5 -9 -14 1 -9 -5 -16 -12 -16 -10 0 -10 5 -1 21 6 12 10 27 8 35
-1 8 2 10 9 6 9 -5 10 -1 5 14 -3 11 -2 21 3 21 4 0 8 -15 8 -34z m3759 -45
c0 -38 -3 -67 -7 -64 -14 8 -8 133 6 133 1 0 2 -31 1 -69z m-2196 -20 c-6 -33
-15 -61 -19 -61 -3 0 -4 -15 -2 -32 3 -18 1 -30 -3 -26 -5 5 -9 31 -10 59 -1
28 1 45 5 39 11 -19 20 3 22 54 1 25 6 42 11 37 5 -5 3 -36 -4 -70z m6020 34
c0 -5 -4 -3 -9 5 -5 8 -9 22 -9 30 0 16 17 -16 18 -35z m-2272 -17 c-3 -7 -5
-2 -5 12 0 14 2 19 5 13 2 -7 2 -19 0 -25z m3836 -45 c-5 -11 -3 -14 6 -8 10
6 11 2 6 -15 -4 -14 -3 -20 3 -16 5 3 13 -1 16 -10 9 -25 7 -27 -10 -9 -15 14
-17 14 -30 -2 -7 -10 -14 -13 -14 -7 0 5 5 15 12 22 9 9 9 18 0 37 -8 17 -8
24 -2 20 7 -4 9 3 5 22 -5 25 -4 26 4 5 6 -12 7 -30 4 -39z m-3783 -10 c0 -31
-2 -54 -4 -52 -7 6 -13 98 -8 104 11 10 12 4 12 -52z m-5393 5 c-3 -8 -6 -5
-6 6 -1 11 2 17 5 13 3 -3 4 -12 1 -19z m7610 -15 c-3 -10 -5 -4 -5 12 0 17 2
24 5 18 2 -7 2 -21 0 -30z m-7620 -9 c-3 -3 -12 -4 -19 -1 -8 3 -5 6 6 6 11 1
17 -2 13 -5z m3788 -82 c0 -37 2 -72 5 -78 3 -7 1 -11 -5 -10 -6 0 -10 36 -10
83 -1 45 2 80 5 77 3 -3 5 -36 5 -72z m-3795 46 c-8 -7 -21 -19 -27 -27 -8 -9
-13 -10 -13 -4 0 15 28 43 43 43 6 0 5 -5 -3 -12z m7648 -34 c-3 -14 -5 -12
-10 9 -3 19 -2 25 4 19 6 -6 8 -18 6 -28z m-2231 -26 c-2 -13 -4 -5 -4 17 -1
22 1 32 4 23 2 -10 2 -28 0 -40z m2207 36 c3 -8 2 -12 -4 -9 -6 3 -10 10 -10
16 0 14 7 11 14 -7z m1557 -27 c-10 -9 -11 -8 -5 6 3 10 9 15 12 12 3 -3 0
-11 -7 -18z m-9211 -1 c0 -3 -4 -8 -10 -11 -5 -3 -10 -1 -10 4 0 6 5 11 10 11
6 0 10 -2 10 -4z m1607 -18 c-3 -8 -6 -5 -6 6 -1 11 2 17 5 13 3 -3 4 -12 1
-19z m6050 0 c-3 -8 -6 -5 -6 6 -1 11 2 17 5 13 3 -3 4 -12 1 -19z m1633 -22
c0 -12 -5 -7 -19 24 -11 24 -11 24 3 6 9 -11 16 -24 16 -30z m-9321 -30 c-9
-8 -10 -7 -5 7 3 10 7 24 7 30 1 7 3 4 6 -7 3 -10 -1 -23 -8 -30z m5478 12
c-3 -8 -6 -5 -6 6 -1 11 2 17 5 13 3 -3 4 -12 1 -19z m-3877 -38 c0 -11 -7
-20 -15 -20 -13 0 -13 3 -3 20 7 11 14 20 15 20 2 0 3 -9 3 -20z m3888 -61
c-3 -27 -1 -52 5 -56 5 -3 3 -9 -4 -14 -10 -6 -11 -9 -1 -9 7 0 12 -15 12 -40
0 -23 -5 -40 -11 -40 -8 0 -10 12 -6 34 3 19 3 37 -1 41 -3 3 -6 41 -7 85 0
49 3 73 9 63 4 -8 6 -37 4 -64z m3857 42 c5 -18 4 -22 -6 -17 -8 4 -6 1 4 -7
11 -9 14 -18 8 -21 -13 -9 -24 11 -27 52 -3 37 9 33 21 -7z m-9361 4 c-4 -17
-2 -25 6 -25 10 0 10 -3 0 -15 -14 -17 -30 -20 -30 -4 0 5 5 7 12 3 8 -5 9 -2
4 11 -3 10 -4 26 -1 36 9 28 16 23 9 -6z m1630 -24 c-4 -23 -9 -40 -11 -37 -3
3 -2 23 2 46 4 23 9 39 11 37 3 -2 2 -23 -2 -46z m-1587 7 c-3 -8 -6 -5 -6 6
-1 11 2 17 5 13 3 -3 4 -12 1 -19z m3815 -50 c2 -25 0 -44 -4 -41 -5 2 -7 30
-7 61 1 62 6 53 11 -20z m3878 31 c6 -22 14 -47 17 -55 3 -8 1 -14 -5 -14 -5
0 -12 18 -16 39 -3 22 -9 46 -12 55 -3 9 -4 16 0 16 3 0 10 -18 16 -41z
m-6133 -35 c2 -17 1 -17 -3 -1 -5 17 -7 17 -18 2 -11 -15 -12 -14 -12 3 0 25
30 22 33 -4z m6203 16 c0 -5 -5 -10 -11 -10 -5 0 -7 5 -4 10 3 6 8 10 11 10 2
0 4 -4 4 -10z m1599 -74 c2 -25 -18 13 -23 44 l-6 35 14 -35 c8 -19 15 -39 15
-44z m-9438 20 c-6 -14 -7 -26 -3 -26 4 0 1 -4 -7 -9 -10 -6 -15 -28 -16 -60
-1 -28 -5 -54 -9 -58 -5 -4 -6 5 -2 22 10 39 0 29 -19 -21 -10 -25 -13 -29
-10 -11 8 39 66 199 71 194 3 -2 0 -16 -5 -31z m1639 -31 c-5 -26 -8 -31 -9
-16 -1 24 -1 24 -17 5 -17 -20 -8 -3 16 33 18 28 19 26 10 -22z m6156 -2 c-10
-10 -19 5 -10 18 6 11 8 11 12 0 2 -7 1 -15 -2 -18z m-3896 -4 c0 -5 -4 -9
-10 -9 -13 0 -13 -53 0 -66 6 -6 6 -21 0 -43 -7 -25 -6 -32 3 -28 7 3 13 -5
13 -19 1 -13 -2 -24 -6 -24 -14 0 -23 44 -25 127 -2 66 0 80 11 76 8 -3 14 -9
14 -14z m17 -11 c-3 -7 -5 -2 -5 12 0 14 2 19 5 13 2 -7 2 -19 0 -25z m-2287
-44 c0 -8 -4 -12 -10 -9 -5 3 -10 13 -10 21 0 8 5 12 10 9 6 -3 10 -13 10 -21z
m7840 -9 c0 -5 -5 -3 -10 5 -5 8 -10 20 -10 25 0 6 5 3 10 -5 5 -8 10 -19 10
-25z m-1660 -12 c-11 -17 -11 -17 -6 0 3 10 6 24 7 30 0 9 2 9 5 0 3 -7 0 -20
-6 -30z m1594 -27 c-8 -21 -23 -11 -19 12 2 9 4 22 5 27 0 6 5 3 10 -7 6 -9 7
-23 4 -32z m78 9 c0 -8 1 -21 2 -27 1 -7 4 -15 7 -18 3 -3 10 -19 16 -36 8
-24 8 -31 -2 -31 -8 0 -11 7 -7 15 3 9 1 13 -5 9 -7 -5 -9 1 -5 15 3 14 1 19
-6 14 -7 -4 -9 1 -7 15 2 12 0 30 -6 40 -6 13 -6 19 1 19 5 0 11 -7 12 -15z
m-7865 -17 c-3 -8 -6 -5 -6 6 -1 11 2 17 5 13 3 -3 4 -12 1 -19z m-1621 -17
c0 -11 -4 -17 -8 -15 -4 3 -8 12 -8 20 0 8 4 14 8 14 4 0 8 -9 8 -19z m5544
-11 c0 -16 -2 -30 -4 -30 -2 0 -6 14 -8 30 -3 17 -1 30 4 30 4 0 8 -13 8 -30z
m24 -61 c6 -84 6 -86 -17 -84 -13 1 -23 9 -24 21 -3 19 -3 19 5 0 6 -14 11
-16 16 -8 4 7 4 17 1 22 -3 6 -1 10 5 10 7 0 8 6 3 14 -7 13 -5 123 2 114 1
-2 5 -42 9 -89z m2273 49 c-3 -8 -6 -5 -6 6 -1 11 2 17 5 13 3 -3 4 -12 1 -19z
m-7881 -26 c-6 -19 -34 -37 -42 -29 -5 5 40 55 44 51 2 -1 1 -11 -2 -22z
m1651 -2 c0 -16 -2 -28 -5 -25 -8 8 -11 55 -3 55 4 0 8 -13 8 -30z m7852 7 c0
-9 -2 -8 -6 1 -2 6 -10 9 -15 6 -7 -4 -8 -2 -4 5 9 13 26 5 25 -12z m-5576
-37 c9 0 9 -2 0 -8 -6 -4 -13 -21 -16 -37 -2 -17 -4 -3 -4 30 0 33 2 50 4 38
2 -13 10 -23 16 -23z m3950 25 c-3 -9 -8 -14 -10 -11 -3 3 -2 9 2 15 9 16 15
13 8 -4z m1621 -35 c-6 -6 -10 -3 -10 10 0 13 4 16 10 10 7 -7 7 -13 0 -20z
m-1617 -12 c-3 -8 -6 -5 -6 6 -1 11 2 17 5 13 3 -3 4 -12 1 -19z m-7920 -17
c-1 -16 -5 -27 -9 -24 -5 2 -9 -3 -9 -11 -1 -9 -3 -20 -4 -26 -1 -5 -3 -14 -4
-20 0 -5 -5 -10 -10 -10 -10 0 -1 42 20 93 15 35 19 34 16 -2z m9608 19 c3 -5
2 -10 -4 -10 -5 0 -13 5 -16 10 -3 6 -2 10 4 10 5 0 13 -4 16 -10z m-7971 -16
c3 -8 2 -12 -4 -9 -6 3 -10 10 -10 16 0 14 7 11 14 -7z m7918 9 c-6 -2 -9 -10
-6 -15 4 -7 2 -8 -5 -4 -13 9 -5 26 12 25 9 0 8 -2 -1 -6z m-7945 -25 c-3 -8
-6 -5 -6 6 -1 11 2 17 5 13 3 -3 4 -12 1 -19z m65 -13 c-5 -38 -16 -52 -28
-34 -4 8 -3 9 4 5 8 -5 12 2 12 22 0 23 7 42 15 42 0 0 -1 -16 -3 -35z m6258
9 c0 -8 -5 -12 -10 -9 -6 4 -8 11 -5 16 9 14 15 11 15 -7z m1694 -55 c-3 -6 2
-19 12 -30 9 -10 15 -21 12 -24 -10 -11 -41 49 -44 85 l-2 35 14 -28 c8 -15
12 -32 8 -38z m-5664 -27 c0 -20 -4 -31 -10 -27 -14 9 -13 -41 1 -64 8 -12 9
-23 2 -35 -9 -17 -11 -17 -16 -2 -4 10 -3 15 3 11 6 -3 10 -1 10 4 0 6 -4 11
-10 11 -11 0 -14 118 -4 145 10 24 24 -1 24 -43z m1698 -67 c0 -32 -2 -28 -8
20 -5 33 -9 65 -10 70 -1 6 -1 15 0 20 4 19 19 -70 18 -110z m2279 68 c-3 -10
-5 -4 -5 12 0 17 2 24 5 18 2 -7 2 -21 0 -30z m41 5 c-6 -18 -13 -27 -15 -21
-4 11 13 53 22 53 2 0 -1 -15 -7 -32z m-7981 -10 c-3 -8 -6 -5 -6 6 -1 11 2
17 5 13 3 -3 4 -12 1 -19z m1643 12 c0 -5 -4 -10 -10 -10 -5 0 -10 5 -10 10 0
6 5 10 10 10 6 0 10 -4 10 -10z m-1695 -67 c-11 -21 -19 -44 -18 -52 1 -9 -2
-10 -9 -3 -6 6 -4 20 6 40 8 16 12 33 8 37 -4 5 -1 5 7 0 11 -6 13 -3 8 15 -4
17 -3 20 5 12 9 -9 7 -21 -7 -49z m9672 15 c1 -26 -1 -29 -7 -13 -6 17 -3 45
5 45 1 0 2 -15 2 -32z m-9637 -13 c-6 -15 -13 -25 -17 -21 -3 3 0 17 7 31 17
32 24 26 10 -10z m4004 19 c3 -8 2 -12 -4 -9 -6 3 -10 10 -10 16 0 14 7 11 14
-7z m-2335 -6 c-1 -7 -5 -24 -9 -38 -7 -22 -8 -20 -7 13 1 20 5 37 9 37 4 0 8
-6 7 -12z m6328 -20 c-3 -7 -5 -2 -5 12 0 14 2 19 5 13 2 -7 2 -19 0 -25z
m-4007 2 c0 -5 -5 -10 -11 -10 -5 0 -7 5 -4 10 3 6 8 10 11 10 2 0 4 -4 4 -10z
m3990 -8 c0 -10 7 -28 16 -40 8 -12 11 -22 5 -22 -6 0 -8 -7 -4 -16 5 -13 7
-13 14 -2 6 9 9 9 9 1 0 -6 -5 -15 -11 -19 -13 -8 -30 14 -27 36 0 8 -2 23 -5
33 -15 38 -16 47 -7 47 6 0 10 -8 10 -18z m-3970 -17 c0 -8 -4 -15 -10 -15 -5
0 -7 7 -4 15 4 8 8 15 10 15 2 0 4 -7 4 -15z m1637 -17 c-3 -7 -5 -2 -5 12 0
14 2 19 5 13 2 -7 2 -19 0 -25z m-3997 -35 c0 -31 -17 -37 -24 -9 -8 32 3 64
15 44 5 -7 9 -23 9 -35z m8065 -11 c28 -80 43 -132 38 -132 -2 0 3 -10 11 -22
23 -32 20 -46 -4 -20 -11 12 -20 33 -20 47 0 14 -4 25 -8 25 -5 0 -8 10 -7 23
3 27 -5 43 -14 28 -4 -6 -7 4 -7 22 0 47 -11 67 -36 67 -17 0 -20 2 -9 9 23
15 39 2 56 -47z m-4026 -34 c-1 -29 -4 -42 -6 -28 -3 14 -9 30 -15 37 -6 8 -5
17 4 27 7 8 14 15 16 16 1 0 1 -24 1 -52z m-5767 20 c-7 -7 -12 -8 -12 -2 0
14 12 26 19 19 2 -3 -1 -11 -7 -17z m4030 -55 c-3 -94 -12 -92 -12 2 0 43 3
75 7 71 4 -4 6 -37 5 -73z m1695 30 c-3 -10 -5 -4 -5 12 0 17 2 24 5 18 2 -7
2 -21 0 -30z m-5710 -5 c-3 -8 -6 -5 -6 6 -1 11 2 17 5 13 3 -3 4 -12 1 -19z
m1703 -3 c0 -8 -4 -15 -10 -15 -5 0 -7 7 -4 15 4 8 8 15 10 15 2 0 4 -7 4 -15z
m6370 -19 c0 -13 4 -36 9 -52 17 -52 23 -90 13 -79 -5 6 -14 37 -21 70 -7 33
-15 68 -18 79 -3 12 -1 16 6 12 6 -4 11 -17 11 -30z m-2356 -33 c-10 -7 -20
-10 -23 -7 -3 3 2 11 12 18 9 7 18 19 18 27 1 8 4 5 6 -5 3 -12 -2 -25 -13
-33z m-5724 7 c0 -5 -4 -10 -10 -10 -5 0 -10 5 -10 10 0 6 5 10 10 10 6 0 10
-4 10 -10z m1691 -27 c-10 -17 -10 -16 -11 3 0 23 13 41 18 25 2 -6 -1 -18 -7
-28z m-1739 -35 c-7 -7 -12 -22 -12 -34 0 -12 -7 -24 -15 -28 -8 -3 -15 -1
-15 4 0 6 5 10 11 10 5 0 7 4 4 10 -3 5 0 20 7 32 7 13 11 28 9 33 -1 6 3 4
10 -2 10 -10 10 -16 1 -25z m38 15 c-1 -10 -26 -43 -33 -43 -3 0 0 11 6 25 11
23 27 34 27 18z m5783 -118 c4 -79 3 -104 -3 -74 -11 66 -16 209 -6 198 2 -2
6 -58 9 -124z m-4118 95 c3 -5 1 -10 -4 -10 -6 0 -11 5 -11 10 0 6 2 10 4 10
3 0 8 -4 11 -10z m2358 -63 c1 -37 -1 -67 -5 -67 -4 0 -8 32 -8 72 0 89 9 85
13 -5z m-4013 44 c-5 -11 -15 -23 -22 -27 -7 -5 -8 -2 -3 7 21 37 44 55 25 20z
m1680 -8 c-2 -29 -39 -173 -39 -155 -1 13 -5 20 -11 17 -15 -10 -12 11 4 24
15 13 38 100 30 113 -3 4 0 8 5 8 6 0 11 -3 11 -7z m6444 -63 c-6 -5 -24 21
-24 34 0 6 6 1 14 -10 8 -10 12 -21 10 -24z m23 18 c-3 -8 -6 -5 -6 6 -1 11 2
17 5 13 3 -3 4 -12 1 -19z m-8217 -39 c0 -4 -4 -11 -10 -14 -6 -4 -7 1 -3 12
6 15 4 16 -9 5 -13 -10 -15 -9 -10 15 5 25 6 25 18 8 8 -10 14 -22 14 -26z
m9958 -50 c-5 -3 -6 -13 -2 -22 3 -9 2 -17 -4 -17 -12 0 -23 51 -14 65 4 5 6
19 4 30 -1 11 4 4 12 -15 7 -19 9 -38 4 -41z m-1753 25 c9 -6 10 -15 5 -24
-12 -19 -16 -13 -24 30 -3 19 -3 28 0 20 4 -8 12 -20 19 -26z m-6514 3 c-10
-9 -11 -8 -5 6 3 10 9 15 12 12 3 -3 0 -11 -7 -18z m-1734 -26 c-6 -26 10 -51
22 -33 7 11 9 11 13 0 4 -10 -4 -14 -28 -15 -19 0 -34 3 -34 8 0 5 5 9 11 9 5
0 8 4 5 9 -6 10 3 41 11 41 3 0 3 -9 0 -19z m4115 -98 c2 -39 0 -69 -4 -67 -4
3 -7 42 -7 87 1 94 6 85 11 -20z m-2363 -14 c1 -32 -2 -59 -6 -62 -4 -3 -8 32
-9 76 -1 90 12 77 15 -14z m6509 35 c4 2 7 -11 7 -29 0 -48 -17 -26 -20 27 -1
23 -1 33 2 20 2 -12 7 -20 11 -18z m1770 5 c-3 -8 -7 -3 -11 10 -4 17 -3 21 5
13 5 -5 8 -16 6 -23z m-10021 -21 c-3 -8 -6 -5 -6 6 -1 11 2 17 5 13 3 -3 4
-12 1 -19z m9980 0 c-3 -8 -6 -5 -6 6 -1 11 2 17 5 13 3 -3 4 -12 1 -19z m33
-16 c0 -7 -4 -10 -10 -7 -5 3 -10 16 -10 28 0 18 2 19 10 7 5 -8 10 -21 10
-28z m-10040 -2 c0 -5 -4 -10 -10 -10 -5 0 -10 5 -10 10 0 6 5 10 10 10 6 0
10 -4 10 -10z m5907 -12 c-3 -8 -6 -5 -6 6 -1 11 2 17 5 13 3 -3 4 -12 1 -19z
m4090 -35 c-3 -10 -5 -2 -5 17 0 19 2 27 5 18 2 -10 2 -26 0 -35z m-9957 33
c0 -3 -4 -8 -10 -11 -5 -3 -10 -1 -10 4 0 6 5 11 10 11 6 0 10 -2 10 -4z m-10
-68 c0 -9 -7 -21 -15 -26 -13 -7 -14 -14 -5 -38 8 -21 8 -26 0 -18 -6 6 -13
33 -15 60 -3 41 -2 45 7 24 6 -14 12 -20 15 -13 2 7 0 21 -6 32 -16 29 -13 38
4 15 8 -10 15 -27 15 -36z m5875 5 c-9 -65 -27 -135 -32 -129 -3 2 2 39 11 81
9 42 13 81 10 86 -3 5 0 9 7 9 8 0 9 -14 4 -47z m4120 38 c3 -5 1 -12 -5 -16
-5 -3 -10 1 -10 9 0 18 6 21 15 7z m-9975 -11 c0 -5 -2 -10 -4 -10 -3 0 -8 5
-11 10 -3 6 -1 10 4 10 6 0 11 -4 11 -10z m8241 -47 c2 -23 0 -45 -4 -49 -4
-4 -7 4 -7 18 0 14 -3 41 -6 59 -5 24 -3 31 4 24 6 -5 12 -29 13 -52z m1754 0
c-7 -54 -20 -82 -32 -70 -4 5 -2 12 5 16 7 4 12 12 11 17 -3 15 13 95 18 90 3
-3 2 -27 -2 -53z m-5895 -11 c0 -7 -4 -10 -10 -7 -5 3 -10 16 -10 28 0 18 2
19 10 7 5 -8 10 -21 10 -28z m-2398 -14 c-6 -6 -7 0 -4 19 5 21 7 23 10 9 2
-10 0 -22 -6 -28z m4085 -10 c-3 -8 -6 -5 -6 6 -1 11 2 17 5 13 3 -3 4 -12 1
-19z m-1671 -63 c7 -36 8 -38 14 -15 4 14 3 29 -2 35 -11 12 -10 25 2 25 6 0
10 -7 10 -16 0 -9 5 -12 13 -8 8 5 8 2 -2 -9 -7 -9 -14 -35 -15 -57 0 -22 -2
-40 -3 -40 -2 0 -28 89 -39 135 -4 16 -3 17 5 5 5 -8 13 -33 17 -55z m1701 43
c-3 -8 -6 -5 -6 6 -1 11 2 17 5 13 3 -3 4 -12 1 -19z m2437 -24 c3 -8 2 -12
-4 -9 -6 3 -10 10 -10 16 0 14 7 11 14 -7z m-2444 2 c0 -2 -6 -9 -14 -15 -11
-9 -16 -9 -22 0 -4 8 -3 9 4 5 7 -4 12 -2 12 3 0 6 5 11 10 11 6 0 10 -2 10
-4z m4163 -22 c-3 -8 -10 -11 -15 -8 -6 4 -8 -3 -4 -17 6 -24 6 -24 -5 -2 -14
27 -5 55 15 47 8 -3 12 -12 9 -20z m-10006 -6 c-3 -8 -6 -5 -6 6 -1 11 2 17 5
13 3 -3 4 -12 1 -19z m1723 12 c0 -5 -5 -10 -11 -10 -5 0 -7 5 -4 10 3 6 8 10
11 10 2 0 4 -4 4 -10z m6612 -12 c-7 -7 -12 -8 -12 -2 0 14 12 26 19 19 2 -3
-1 -11 -7 -17z m-32 -8 c0 -5 -2 -10 -4 -10 -3 0 -8 5 -11 10 -3 6 -1 10 4 10
6 0 11 -4 11 -10z m-2480 -10 c12 20 32 1 24 -23 -14 -44 -45 -110 -49 -105
-3 2 4 23 15 46 23 48 26 70 8 54 -10 -8 -13 -4 -14 16 -1 15 1 21 3 13 4 -10
7 -11 13 -1z m-5770 -86 c0 -8 -4 -13 -10 -9 -5 3 -6 13 -3 22 4 10 2 14 -4
10 -7 -4 -16 6 -22 25 -16 45 -14 45 14 4 14 -20 25 -44 25 -52z m1620 33 c6
-17 6 -25 0 -22 -6 4 -10 13 -10 21 0 8 -4 13 -9 10 -4 -3 -6 7 -3 22 3 16 7
21 9 12 3 -8 9 -28 13 -43z m40 49 c0 -3 -4 -8 -10 -11 -5 -3 -10 -1 -10 4 0
6 5 11 10 11 6 0 10 -2 10 -4z m6600 -16 c0 -5 -4 -10 -10 -10 -5 0 -10 5 -10
10 0 6 5 10 10 10 6 0 10 -4 10 -10z m1668 -37 c-7 -16 -18 -35 -25 -44 -7 -9
-10 -18 -7 -21 3 -3 1 -9 -5 -12 -18 -12 0 42 32 92 14 21 17 13 5 -15z m-68
-3 c0 -5 -4 -10 -10 -10 -5 0 -10 5 -10 10 0 6 5 10 10 10 6 0 10 -4 10 -10z
m17 -35 c-12 -25 -27 -33 -27 -15 0 12 22 39 32 40 3 0 1 -11 -5 -25z m-8257
-4 c0 -4 -6 -8 -14 -8 -8 0 -12 6 -9 14 5 13 23 9 23 -6z m2530 -11 c6 -11 7
-20 2 -20 -6 0 -12 9 -15 20 -3 11 -3 20 -1 20 2 0 8 -9 14 -20z m4140 5 c7
-9 8 -15 2 -15 -5 0 -12 7 -16 15 -3 8 -4 15 -2 15 2 0 9 -7 16 -15z m-8271
-39 c-3 -3 -11 5 -18 17 -13 21 -12 21 5 5 10 -10 16 -20 13 -22z m1531 9 c-7
-8 -17 -15 -22 -15 -6 0 -5 7 2 15 7 8 17 15 22 15 6 0 5 -7 -2 -15z m2630
-15 c-7 -5 -9 -14 -5 -21 6 -10 5 -11 -4 -3 -14 12 -4 47 11 38 6 -4 6 -9 -2
-14z m1554 4 c3 -8 2 -12 -4 -9 -6 3 -10 10 -10 16 0 14 7 11 14 -7z m2641 6
c3 -5 2 -10 -4 -10 -5 0 -13 5 -16 10 -3 6 -2 10 4 10 5 0 13 -4 16 -10z
m-6788 -18 c15 12 15 11 3 -9 -13 -20 -15 -20 -26 -5 -7 9 -9 21 -6 27 4 5 8
2 10 -8 3 -15 6 -16 19 -5z m4113 -26 c0 -6 4 -4 10 4 5 8 11 12 14 10 2 -3
-1 -13 -8 -22 -11 -15 -14 -13 -30 20 -13 29 -13 33 -1 18 8 -11 15 -25 15
-30z m-1479 11 c-10 -9 -11 -8 -5 6 3 10 9 15 12 12 3 -3 0 -11 -7 -18z m4130
6 c13 -16 12 -17 -3 -4 -10 7 -18 15 -18 17 0 8 8 3 21 -13z m-30 -10 c13 -16
12 -17 -3 -4 -10 7 -18 15 -18 17 0 8 8 3 21 -13z m66 -5 c-3 -8 -6 -5 -6 6
-1 11 2 17 5 13 3 -3 4 -12 1 -19z m-8330 -1 c-3 -8 -1 -20 4 -28 8 -12 11
-12 20 1 8 12 9 10 4 -8 -4 -13 -1 -30 7 -40 12 -15 11 -16 -5 -3 -33 26 -54
91 -30 91 3 0 3 -6 0 -13z m5627 -13 c3 -8 2 -12 -4 -9 -6 3 -10 10 -10 16 0
14 7 11 14 -7z m-1474 -25 c0 -6 -4 -7 -10 -4 -5 3 -10 11 -10 16 0 6 5 7 10
4 6 -3 10 -11 10 -16z m4166 -3 c-12 -18 -12 -26 -3 -29 8 -4 8 -6 1 -6 -7 -1
-20 11 -30 27 -17 26 -17 26 0 12 16 -12 19 -12 27 3 6 9 13 17 16 17 3 0 -2
-11 -11 -24z m1387 9 c-3 -9 -8 -14 -10 -11 -3 3 -2 9 2 15 9 16 15 13 8 -4z
m66 1 c9 -11 9 -16 0 -22 -8 -4 -9 -3 -5 4 4 7 2 12 -3 12 -6 0 -11 -5 -11
-12 0 -6 -2 -9 -5 -6 -5 5 4 38 10 38 1 0 8 -6 14 -14z m-9692 -18 c-3 -8 -6
-5 -6 6 -1 11 2 17 5 13 3 -3 4 -12 1 -19z m1403 18 c0 -2 -8 -10 -17 -17 -16
-13 -17 -12 -4 4 13 16 21 21 21 13z m4 -31 c-19 -29 -20 -29 -30 -12 -4 6 -4
9 1 5 5 -5 14 1 22 12 20 29 26 25 7 -5z m4079 5 c-3 -11 -7 -20 -9 -20 -2 0
-4 9 -4 20 0 11 4 20 9 20 5 0 7 -9 4 -20z m2827 0 c0 -5 -2 -10 -4 -10 -3 0
-8 5 -11 10 -3 6 -1 10 4 10 6 0 11 -4 11 -10z m-4212 -25 c12 -14 18 -25 13
-25 -5 0 -16 11 -25 25 -9 14 -15 25 -13 25 2 0 13 -11 25 -25z m1442 11 c0
-2 -9 -6 -20 -9 -11 -3 -18 -1 -14 4 5 9 34 13 34 5z m4084 -12 c3 -8 2 -12
-4 -9 -6 3 -10 10 -10 16 0 14 7 11 14 -7z m56 12 c0 -2 -7 -9 -15 -16 -13
-11 -14 -10 -9 4 5 14 24 23 24 12z m-9678 -30 c7 4 8 2 4 -5 -9 -14 -36 3
-36 23 0 6 5 3 11 -7 6 -9 15 -14 21 -11z m1338 -39 c-24 -22 -24 -22 -6 0 10
12 15 27 11 35 -7 10 -5 11 6 0 11 -10 9 -16 -11 -35z m474 -126 c100 -130
256 -256 413 -335 252 -126 580 -151 859 -65 242 74 480 255 625 473 l61 94
61 -92 c187 -282 495 -475 822 -517 116 -14 287 -7 400 16 298 62 585 266 751
535 l37 60 57 -87 c364 -563 1128 -703 1671 -307 94 69 216 198 283 301 l60
91 57 -86 c210 -319 538 -508 918 -530 l116 -7 3 -37 3 -38 -4200 0 -4201 0 0
40 0 40 73 0 c374 0 739 199 952 519 l68 102 34 -57 c19 -32 54 -82 77 -113z
m6491 159 c8 13 25 3 25 -13 0 -8 -3 -8 -9 2 -6 9 -11 10 -15 3 -4 -6 -14 -9
-24 -6 -12 4 -10 -1 7 -15 13 -12 19 -21 14 -21 -14 0 -54 45 -47 53 4 3 15 2
25 -3 12 -7 20 -7 24 0z m1259 -11 c-8 -13 -21 -11 -27 5 -4 10 0 12 14 9 10
-3 16 -9 13 -14z m54 -4 c3 -11 0 -15 -7 -10 -6 3 -9 10 -6 15 3 4 0 11 -5 13
-6 3 -5 4 2 3 7 -1 15 -11 16 -21z m-5452 -8 c0 -13 -6 -24 -13 -24 -8 0 -8 7
0 24 13 29 15 29 13 0z m1324 -2 c-13 -14 -27 -25 -32 -25 -9 0 42 49 51 50 3
0 -6 -11 -19 -25z m4110 -24 c0 -4 -22 -29 -50 -55 -27 -26 -50 -44 -50 -40 0
4 17 22 38 41 20 19 29 32 19 29 -18 -6 -17 3 5 31 10 12 38 7 38 -6z m-9560
-13 c0 -5 10 -6 23 -3 16 5 18 4 8 -3 -8 -6 -11 -17 -8 -26 10 -25 2 -19 -27
19 -17 22 -21 32 -11 29 8 -3 15 -10 15 -16z m4215 2 c3 -5 1 -10 -4 -10 -6 0
-11 5 -11 10 0 6 2 10 4 10 3 0 8 -4 11 -10z m-43 -24 c6 4 8 2 4 -4 -3 -6 4
-18 16 -26 12 -9 19 -16 15 -16 -12 0 -77 54 -77 63 0 5 7 1 16 -7 8 -9 20
-13 26 -10z m-2928 -1 c-7 -16 -24 -21 -24 -6 0 8 7 13 27 20 1 1 0 -6 -3 -14z
m4093 -7 c2 -18 0 -20 -7 -8 -12 18 -13 30 -2 30 4 0 9 -10 9 -22z m37 -8
c-19 -19 -20 -20 -20 -1 0 11 5 17 13 14 7 -3 13 1 13 8 0 7 3 9 7 5 4 -3 -2
-15 -13 -26z m2960 15 c-6 -16 6 -20 22 -7 5 4 1 -1 -10 -11 -24 -22 -47 -7
-26 18 16 19 21 19 14 0z m-7137 -24 c-10 -12 -9 -14 6 -8 25 9 21 2 -9 -18
-15 -9 -23 -12 -20 -6 4 6 -3 16 -16 21 l-23 11 23 -5 c16 -3 22 0 19 8 -3 6
3 12 14 12 14 0 16 -3 6 -15z m8264 -5 c-13 -14 -20 -29 -17 -34 3 -5 -13 -22
-37 -36 -23 -15 -32 -18 -20 -8 12 11 19 23 15 27 -4 3 -2 6 3 5 24 -5 34 1
28 16 -4 11 2 23 18 35 33 26 37 24 10 -5z m-9381 10 c0 -2 -9 -6 -20 -9 -11
-3 -18 -1 -14 4 5 9 34 13 34 5z m8286 -42 c2 -12 -1 -13 -12 -3 -7 6 -11 16
-8 21 7 11 17 3 20 -18z m-8261 -15 c4 -6 13 -8 19 -6 7 3 19 1 27 -4 11 -7
12 -9 0 -9 -8 0 -4 -8 10 -21 19 -16 20 -18 4 -10 -33 16 -90 61 -78 61 7 0
15 -5 18 -11z m1025 7 c0 -2 -8 -10 -17 -17 -16 -13 -17 -12 -4 4 13 16 21 21
21 13z m9 -27 c-13 -10 -28 -19 -34 -19 -5 0 2 8 18 18 15 10 24 22 20 27 -5
4 -2 5 6 0 11 -6 9 -12 -10 -26z m3125 19 c4 4 6 2 4 -4 -1 -7 2 -11 7 -10 6
0 9 4 7 9 -1 4 7 2 18 -5 22 -14 21 -17 -8 -23 -12 -2 -29 6 -43 23 -13 15
-17 21 -8 14 9 -6 19 -8 23 -4z m4141 3 c3 -5 2 -12 -3 -15 -5 -3 -9 1 -9 9 0
17 3 19 12 6z m43 -3 c-2 -7 11 -14 27 -18 38 -7 21 -17 -25 -15 -35 2 -43 20
-17 37 16 10 17 10 15 -4z m924 -18 c-17 -18 -20 -19 -18 -5 1 9 9 20 16 25
23 14 24 3 2 -20z m-8337 2 c-3 -3 -11 0 -18 7 -9 10 -8 11 6 5 10 -3 15 -9
12 -12z m52 12 c-3 -3 -12 -4 -19 -1 -8 3 -5 6 6 6 11 1 17 -2 13 -5z m4159
-9 c-20 -15 -36 -19 -36 -10 0 5 38 23 50 24 3 0 -4 -6 -14 -14z m44 1 c0 -2
-7 -7 -16 -10 -8 -3 -12 -2 -9 4 6 10 25 14 25 6z m4040 -20 c-7 -7 -13 -7
-20 0 -6 6 -3 10 10 10 13 0 16 -4 10 -10z m-8267 -10 c3 -8 -2 -20 -11 -28
-15 -12 -16 -11 -3 5 9 12 10 17 2 17 -7 0 -9 5 -6 10 8 13 12 13 18 -4z
m4162 -6 c-3 -5 -16 -15 -28 -21 -19 -9 -19 -8 3 10 28 23 34 26 25 11z m3300
0 c-3 -5 -12 -10 -18 -10 -7 0 -6 4 3 10 19 12 23 12 15 0z m-4175 -13 c0 -4
4 -6 8 -3 4 2 14 1 21 -3 10 -7 10 -9 -2 -14 -8 -3 -27 3 -43 13 -25 17 -26
19 -6 17 12 -1 22 -5 22 -10z m4141 -4 c13 -15 12 -15 -11 -3 -34 17 -36 20
-18 20 9 0 22 -7 29 -17z m-8247 -19 c3 -8 2 -12 -4 -9 -6 3 -10 10 -10 16 0
14 7 11 14 -7z m782 4 c4 -7 4 -10 -1 -6 -4 4 -14 3 -22 -4 -11 -8 -17 -8 -26
2 -10 10 -9 12 5 7 10 -3 20 -2 23 3 8 13 12 13 21 -2z m3533 -4 c2 -2 -15 -4
-38 -4 -26 0 -40 -4 -36 -10 3 -5 1 -10 -5 -10 -7 0 -10 6 -7 14 3 8 1 17 -6
19 -7 2 11 2 38 -1 28 -2 52 -6 54 -8z m4012 -2 c11 -14 11 -15 -1 -4 -21 18
-34 15 -19 -5 13 -17 13 -17 -7 0 -11 9 -24 14 -29 10 -4 -5 -6 -3 -2 2 9 17
45 15 58 -3z m149 -8 c0 -2 -9 0 -20 6 -11 6 -20 13 -20 16 0 2 9 0 20 -6 11
-6 20 -13 20 -16z m565 17 c10 -1 -45 -41 -56 -41 -3 0 -4 10 -2 23 3 17 11
23 26 21 12 -1 27 -3 32 -3z m-8998 -15 c0 -8 -6 -12 -15 -9 -11 5 -11 7 0 14
7 5 13 9 14 9 0 0 1 -6 1 -14z m4143 10 c0 -2 -9 -6 -20 -9 -11 -3 -18 -1 -14
4 5 9 34 13 34 5z m610 -6 c-8 -5 -19 -10 -25 -10 -5 0 -3 5 5 10 8 5 20 10
25 10 6 0 3 -5 -5 -10z m100 0 c8 -5 11 -10 5 -10 -5 0 -17 5 -25 10 -8 5 -10
10 -5 10 6 0 17 -5 25 -10z m4010 -5 c0 -2 -10 -9 -22 -15 -22 -11 -22 -10 -4
4 21 17 26 19 26 11z m-8180 -9 c0 -2 -7 -7 -16 -10 -8 -3 -12 -2 -9 4 6 10
25 14 25 6z m3484 -4 c3 -5 -1 -9 -9 -9 -8 0 -12 4 -9 9 3 4 7 8 9 8 2 0 6 -4
9 -8z m666 4 c0 -2 -9 -6 -20 -9 -11 -3 -20 -1 -20 4 0 5 9 9 20 9 11 0 20 -2
20 -4z m3500 -12 c0 -8 -4 -12 -10 -9 -5 3 -10 10 -10 16 0 5 5 9 10 9 6 0 10
-7 10 -16z m-8180 -4 c0 -5 -4 -10 -10 -10 -5 0 -10 5 -10 10 0 6 5 10 10 10
6 0 10 -4 10 -10z m8763 -1 c-6 -6 -17 -11 -24 -12 -8 -2 -18 -5 -24 -9 -20
-12 -78 -20 -71 -10 5 8 52 22 88 26 3 1 10 4 14 9 4 4 12 7 18 7 7 0 6 -4 -1
-11z m-8802 -15 c8 -10 8 -14 0 -14 -6 0 -11 5 -11 11 0 6 -6 9 -13 6 -8 -3
-20 -2 -26 3 -9 5 -4 8 13 8 14 0 31 -7 37 -14z m504 6 c-3 -5 -12 -7 -20 -3
-21 7 -19 13 6 13 11 0 18 -4 14 -10z m3605 0 c0 -5 -5 -10 -11 -10 -5 0 -7 5
-4 10 3 6 8 10 11 10 2 0 4 -4 4 -10z m550 0 c-20 -13 -33 -13 -25 0 3 6 14
10 23 10 15 0 15 -2 2 -10z m3590 0 c0 -5 -2 -10 -4 -10 -3 0 -8 5 -11 10 -3
6 -1 10 4 10 6 0 11 -4 11 -10z m-3635 -9 c-14 -12 -73 -25 -60 -13 6 6 21 12
35 15 14 2 27 5 30 6 2 0 0 -3 -5 -8z m3713 -16 c-6 -6 -58 8 -58 16 0 4 14 3
31 -3 16 -6 29 -12 27 -13z m-4143 -3 c-3 -3 -11 0 -18 7 -9 10 -8 11 6 5 10
-3 15 -9 12 -12z m-4080 -5 c-7 -4 -31 -3 -52 2 -38 9 -38 9 14 7 29 0 46 -4
38 -9z m175 -10 c25 -2 7 -4 -40 -4 -94 0 -127 9 -65 17 22 3 45 3 50 -1 6 -4
31 -10 55 -12z m143 16 c-7 -2 -19 -2 -25 0 -7 3 -2 5 12 5 14 0 19 -2 13 -5z
m3862 -7 c11 -2 33 1 49 5 21 6 33 5 39 -4 7 -9 10 -9 14 1 2 6 11 12 19 12 9
0 13 -4 9 -9 -3 -5 7 -12 22 -15 16 -2 -27 -3 -95 -2 -71 2 -128 8 -134 14
-10 10 8 10 77 -2z m235 2 c0 -4 -11 -8 -24 -8 -14 0 -27 4 -30 8 -3 5 8 9 24
9 17 0 30 -4 30 -9z m3866 -1 c11 -11 -19 -8 -36 3 -12 8 -10 9 7 7 12 -2 26
-6 29 -10z m284 -3 c0 -2 -15 -4 -32 -3 -27 0 -29 2 -13 8 18 8 45 4 45 -5z
m-75 -4 c-6 -10 -169 -10 -185 0 -8 5 32 8 88 8 56 -1 99 -4 97 -8z m-5915
-2830 l0 -2200 -1255 0 -1255 0 -2 2196 c-2 1208 -1 2198 1 2200 2 2 568 4
1258 4 l1253 0 0 -2200z m5888 3 l-3 -2198 -2807 -3 -2808 -2 0 2200 0 2200
2810 0 2810 0 -2 -2197z"/>
<path d="M8741 8654 c0 -11 3 -14 6 -6 3 7 2 16 -1 19 -3 4 -6 -2 -5 -13z"/>
<path d="M6411 8504 c0 -11 3 -14 6 -6 3 7 2 16 -1 19 -3 4 -6 -2 -5 -13z"/>
<path d="M14361 7484 c0 -11 3 -14 6 -6 3 7 2 16 -1 19 -3 4 -6 -2 -5 -13z"/>
<path d="M13256 7362 c-3 -5 1 -9 9 -9 8 0 12 4 9 9 -3 4 -7 8 -9 8 -2 0 -6
-4 -9 -8z"/>
<path d="M14080 7290 c-9 -6 -10 -10 -3 -10 6 0 15 5 18 10 8 12 4 12 -15 0z"/>
<path d="M8591 6312 c-19 -10 -43 -34 -53 -53 -17 -33 -18 -98 -16 -1621 l3
-1587 21 -28 c11 -15 36 -36 55 -46 32 -16 164 -17 2436 -15 l2402 3 28 21
c15 11 36 36 45 55 17 32 18 129 18 1604 0 1475 -1 1572 -18 1605 -9 19 -32
45 -51 57 l-34 23 -2401 0 c-2307 0 -2403 -1 -2435 -18z m4667 -1664 l2 -1418
-2235 0 c-1781 0 -2235 3 -2235 13 -3 513 2 2812 6 2818 3 6 913 8 2232 7
l2227 -3 3 -1417z"/>
</g>
</svg>
